<?xml version="1.0" encoding="UTF-8"?>
<svg width="12px" height="17px" viewBox="0 0 12 17" version="1.1" xmlns="http://www.w3.org/2000/svg" xmlns:xlink="http://www.w3.org/1999/xlink">
    <!-- Generator: Sketch 47.1 (45422) - http://www.bohemiancoding.com/sketch -->
    <title>ico_trash</title>
    <desc>Created with Sketch.</desc>
    <defs></defs>
    <g id="List" stroke="none" stroke-width="1" fill="none" fill-rule="evenodd">
        <g id="NotificationList" transform="translate(-1087.000000, -492.000000)" fill="#8C8C8C">
            <g id="ico_trash" transform="translate(1087.000000, 492.000000)">
                <path d="M8.40072727,2.25418182 C8.40072727,2.41636364 8.26981818,2.54545455 8.10945455,2.54545455 L3.59927273,2.54545455 C3.43890909,2.54545455 3.30981818,2.41636364 3.30981818,2.25418182 L3.30981818,1.74581818 C3.30981818,1.58545455 3.44036364,1.45454545 3.59927273,1.45454545 L8.10945455,1.45454545 C8.26981818,1.45454545 8.40072727,1.58545455 8.40072727,1.74581818 L8.40072727,2.25418182 Z M10.2541818,2.54545455 L9.85527273,2.54545455 C9.69309091,2.54545455 9.564,2.41636364 9.564,2.25418182 L9.564,1.74581818 C9.564,0.943272727 8.912,0.291272727 8.10945455,0.291272727 L3.59927273,0.291272727 C2.79818182,0.291272727 2.14472727,0.943272727 2.14472727,1.74581818 L2.14472727,2.25418182 C2.14472727,2.41636364 2.01563636,2.54545455 1.85527273,2.54545455 L1.45454545,2.54545455 C0.652,2.54545455 0,3.19745455 0,4 L0,4.65490909 C0,4.81527273 0.130545455,4.94618182 0.291272727,4.94618182 L11.4174545,4.94618182 C11.5796364,4.94618182 11.7087273,4.81527273 11.7087273,4.65490909 L11.7087273,4 C11.7087273,3.19745455 11.0581818,2.54545455 10.2541818,2.54545455 L10.2541818,2.54545455 Z" id="Fill-1"></path>
                <path d="M0.801090909,5.67345455 C0.639272727,5.67345455 0.509818182,5.80254545 0.509818182,5.96472727 L0.509818182,15.2727273 C0.509818182,16.0767273 1.16036364,16.7272727 1.96436364,16.7272727 L9.74581818,16.7272727 C10.5498182,16.7272727 11.2003636,16.0767273 11.2003636,15.2727273 L11.2003636,5.96472727 C11.2003636,5.80254545 11.0709091,5.67345455 10.9090909,5.67345455 L0.801090909,5.67345455 Z" id="Fill-3"></path>
            </g>
        </g>
    </g>
</svg>